<svg width="512" height="512" viewBox="0 0 512 512" fill="none" xmlns="http://www.w3.org/2000/svg">
<g id="racing 1">
<g id="Group">
<path id="Vector" d="M150.861 415.253H68.295C59.134 415.253 51.707 407.826 51.707 398.665C51.707 389.504 59.134 382.077 68.295 382.077H150.861C160.022 382.077 167.449 389.504 167.449 398.665C167.449 407.826 160.022 415.253 150.861 415.253Z" fill="#A5F6FF"/>
<path id="Vector_2" d="M293.6 474.4H18.299C9.138 474.4 1.711 466.973 1.711 457.812C1.711 448.651 9.138 441.224 18.299 441.224H293.6C302.761 441.224 310.188 448.651 310.188 457.812C310.188 466.972 302.762 474.4 293.6 474.4Z" fill="#A5F6FF"/>
<path id="Vector_3" d="M293.6 70.777H91.789C82.628 70.777 75.201 63.35 75.201 54.189C75.201 45.028 82.628 37.6 91.789 37.6H293.6C302.761 37.6 310.188 45.027 310.188 54.188C310.188 63.349 302.762 70.777 293.6 70.777Z" fill="#A5F6FF"/>
<path id="Vector_4" d="M136.908 145.414H16.588C7.427 145.414 0 137.987 0 128.826C0 119.665 7.427 112.238 16.588 112.238H136.907C146.068 112.238 153.495 119.665 153.495 128.826C153.495 137.987 146.069 145.414 136.908 145.414Z" fill="#A5F6FF"/>
</g>
<g id="wheel">
<path id="Vector_5" d="M293.6 474.4C173.175 474.4 75.201 376.426 75.201 256C75.201 135.574 173.174 37.6 293.6 37.6C414.026 37.6 511.999 135.574 511.999 255.999C511.999 376.424 414.026 474.4 293.6 474.4Z" fill="#444444"/>
<path id="Vector_6" d="M293.604 374.91C359.274 374.91 412.51 321.674 412.51 256.004C412.51 190.334 359.274 137.098 293.604 137.098C227.934 137.098 174.698 190.334 174.698 256.004C174.698 321.674 227.934 374.91 293.604 374.91Z" fill="white"/>
<path id="Vector_7" d="M293.604 297.638C316.598 297.638 335.238 278.998 335.238 256.004C335.238 233.01 316.598 214.37 293.604 214.37C270.61 214.37 251.97 233.01 251.97 256.004C251.97 278.998 270.61 297.638 293.604 297.638Z" fill="#FF5E8D"/>
<path id="Vector_8" d="M293.6 120.507C218.889 120.507 158.107 181.289 158.107 256C158.107 300.553 179.726 340.15 213.022 364.86C213.327 365.118 213.63 365.378 213.959 365.615C214.329 365.884 214.708 366.135 215.091 366.369C237.255 382.18 264.36 391.492 293.6 391.492C322.84 391.492 349.944 382.18 372.109 366.369C372.493 366.135 372.871 365.884 373.241 365.615C373.569 365.376 373.873 365.116 374.178 364.86C407.473 340.15 429.093 300.554 429.093 256C429.093 181.29 368.311 120.507 293.6 120.507ZM384.478 209.03L341.522 222.988C334.061 212.19 323.05 204.03 310.189 200.199V155.036C342.56 160.336 369.869 180.877 384.478 209.03ZM268.555 255.999C268.555 242.189 279.79 230.954 293.6 230.954C307.41 230.954 318.645 242.189 318.645 255.999C318.645 269.809 307.41 281.044 293.6 281.044C279.789 281.045 268.555 269.811 268.555 255.999ZM277.011 155.036V200.199C264.148 204.03 253.139 212.189 245.677 222.988L202.722 209.03C217.332 180.877 244.641 160.336 277.011 155.036ZM191.285 255.999C191.285 250.757 191.683 245.606 192.447 240.574L235.415 254.536C235.403 255.024 235.377 255.508 235.377 255.999C235.377 269.295 239.867 281.557 247.397 291.37L220.867 327.886C202.589 309.394 191.285 283.993 191.285 255.999ZM293.6 358.316C277.099 358.316 261.501 354.385 247.685 347.417L274.221 310.895C280.287 313.043 286.807 314.224 293.6 314.224C300.392 314.224 306.913 313.043 312.979 310.895L339.515 347.417C325.699 354.384 310.101 358.316 293.6 358.316ZM366.332 327.886L339.802 291.372C347.332 281.559 351.822 269.297 351.822 256.001C351.822 255.51 351.798 255.026 351.784 254.538L394.752 240.576C395.516 245.608 395.914 250.759 395.914 256.001C395.916 283.993 384.612 309.393 366.332 327.886Z" fill="#FFA358"/>
<path id="Vector_9" d="M512 255.999C512 135.574 414.026 37.6 293.6 37.6V474.4C414.026 474.4 512 376.426 512 255.999Z" fill="#282828"/>
<path id="Vector_10" d="M412.505 255.999C412.505 190.33 359.269 137.094 293.6 137.094V374.904C359.269 374.904 412.505 321.669 412.505 255.999Z" fill="#FFF6A4"/>
<path id="Vector_11" d="M335.235 255.999C335.235 233.005 316.595 214.365 293.601 214.365V297.633C316.594 297.634 335.235 278.993 335.235 255.999Z" fill="#FF3DA8"/>
<path id="Vector_12" d="M318.646 255.999C318.646 269.809 307.411 281.044 293.601 281.044V314.221C300.393 314.221 306.914 313.04 312.98 310.892L339.516 347.414C325.7 354.381 310.103 358.313 293.601 358.313V391.49C322.841 391.49 349.945 382.178 372.11 366.367C372.494 366.133 372.872 365.882 373.242 365.613C373.57 365.374 373.873 365.114 374.179 364.858C407.474 340.148 429.094 300.552 429.094 255.998C429.094 181.287 368.312 120.505 293.601 120.505V230.952C307.411 230.954 318.646 242.189 318.646 255.999ZM394.754 240.574C395.518 245.606 395.916 250.757 395.916 255.999C395.916 283.993 384.612 309.393 366.333 327.884L339.803 291.37C347.333 281.557 351.823 269.295 351.823 255.999C351.823 255.508 351.799 255.024 351.785 254.536L394.754 240.574ZM310.188 155.036C342.559 160.337 369.868 180.877 384.478 209.029L341.522 222.987C334.061 212.189 323.05 204.029 310.189 200.198V155.036H310.188Z" fill="#FF8273"/>
</g>
</g>
</svg>
